<svg xmlns="http://www.w3.org/2000/svg" width="1000" height="869.072" viewBox="0 0 1000 869.072"><path fill="#E0AD0F" d="M693.785 179.07H326.19c-10.05 0-18.197 8.145-18.197 18.195v448.94c0 10.048 8.146 18.195 18.196 18.195h367.595c10.05 0 18.196-8.147 18.196-18.196v-448.94c0-10.048-8.145-18.195-18.195-18.195zm-319.397 63.103c0-3.59 2.91-6.5 6.5-6.5h258.197c3.59 0 6.5 2.91 6.5 6.5V394.63c0 3.59-2.91 6.5-6.5 6.5H380.888c-3.59 0-6.5-2.91-6.5-6.5V242.174zM475.2 599.947c0 3.59-2.91 6.5-6.5 6.5h-71.58c-3.59 0-6.5-2.91-6.5-6.5V488.933c0-3.59 2.91-6.5 6.5-6.5h71.58c3.59 0 6.5 2.91 6.5 6.5v111.014zm24.793-121.514c0 3.59-2.91 6.5-6.5 6.5h-7.895c-3.59 0-6.5-2.91-6.5-6.5v-3.448h-92.136v3.448c0 3.59-2.91 6.5-6.5 6.5h-8.025c-3.59 0-6.5-2.91-6.5-6.5v-17.896c0-3.59 2.91-6.5 6.5-6.5h121.056c3.59 0 6.5 2.91 6.5 6.5v17.896zm50.215 126.365c0 2.485-2.016 4.5-4.5 4.5h-26.342c-2.484 0-4.5-2.015-4.5-4.5v-26.34c0-2.484 2.016-4.5 4.5-4.5h26.342c2.484 0 4.5 2.016 4.5 4.5v26.34zm0-51.917c0 2.486-2.016 4.5-4.5 4.5h-26.342c-2.484 0-4.5-2.014-4.5-4.5v-26.34c0-2.483 2.016-4.5 4.5-4.5h26.342c2.484 0 4.5 2.017 4.5 4.5v26.34zm0-51.913c0 2.484-2.016 4.5-4.5 4.5h-26.342c-2.484 0-4.5-2.016-4.5-4.5v-26.34c0-2.485 2.016-4.5 4.5-4.5h26.342c2.484 0 4.5 2.015 4.5 4.5v26.34zm51.914 103.83c0 2.486-2.015 4.5-4.5 4.5h-26.34c-2.486 0-4.5-2.014-4.5-4.5v-26.34c0-2.483 2.014-4.5 4.5-4.5h26.34c2.485 0 4.5 2.017 4.5 4.5v26.34zm0-51.916c0 2.486-2.015 4.5-4.5 4.5h-26.34c-2.486 0-4.5-2.014-4.5-4.5v-26.34c0-2.483 2.014-4.5 4.5-4.5h26.34c2.485 0 4.5 2.017 4.5 4.5v26.34zm0-51.913c0 2.484-2.015 4.5-4.5 4.5h-26.34c-2.486 0-4.5-2.016-4.5-4.5v-26.34c0-2.485 2.014-4.5 4.5-4.5h26.34c2.485 0 4.5 2.015 4.5 4.5v26.34zm51.915 103.83c0 2.486-2.015 4.5-4.5 4.5h-26.34c-2.486 0-4.5-2.014-4.5-4.5v-26.34c0-2.483 2.014-4.5 4.5-4.5h26.34c2.485 0 4.5 2.017 4.5 4.5v26.34zm0-51.916c0 2.486-2.015 4.5-4.5 4.5h-26.34c-2.486 0-4.5-2.014-4.5-4.5v-26.34c0-2.483 2.014-4.5 4.5-4.5h26.34c2.485 0 4.5 2.017 4.5 4.5v26.34zm0-51.913c0 2.484-2.015 4.5-4.5 4.5h-26.34c-2.486 0-4.5-2.016-4.5-4.5v-26.34c0-2.485 2.014-4.5 4.5-4.5h26.34c2.485 0 4.5 2.015 4.5 4.5v26.34z"/><g fill="#E0AD0F"><path d="M449.157 338.32h-18.71l-3.466 14.752h-21.878l17.72-62.766c.462-1.65 1.353-2.986 2.674-4.01 1.32-1.022 2.837-1.534 4.554-1.534h19.503c1.715 0 3.233.512 4.554 1.534 1.32 1.023 2.21 2.36 2.673 4.01l17.72 62.766h-21.878l-3.465-14.75zm-3.465-15.047l-3.366-14.652c-.594-3.1-.99-5.707-1.188-7.82h-2.673c-.396 3.104-.792 5.71-1.188 7.82l-3.366 14.653h11.782zM528.555 300.8H509.45v52.272h-21.484V300.8H468.86v-16.037h59.695V300.8zM591.022 284.763h18.91c4.816 0 7.325 2.475 7.523 7.425l2.376 60.885h-19.305l-2.08-52.272h-1.483l-6.732 34.85c-.727 4.355-3.433 6.534-8.118 6.534h-11.088c-4.687 0-7.425-2.18-8.217-6.534l-6.83-34.85h-1.485l-1.684 52.273h-19.305l2.376-60.885c.197-4.95 2.704-7.425 7.522-7.425h18.514c4.62 0 7.326 2.212 8.118 6.633l4.95 27.126c.33 2.113.692 5.512 1.088 10.197h.892c0-.2.148-1.618.445-4.26.296-2.638.544-4.617.74-5.938l4.654-27.126c.794-4.422 3.532-6.633 8.218-6.633z"/></g></svg>