<svg xmlns="http://www.w3.org/2000/svg" viewBox="0 0 200 200"><g fill="#FFF"><path d="M32.14 102.882l64.168 51.134c1.08.86 2.385 1.29 3.693 1.29 1.305 0 2.61-.43 3.692-1.29l64.167-51.134c1.967-1.57 2.728-4.21 1.898-6.588-.832-2.376-3.074-3.967-5.59-3.967h-27.165V16.035c0-3.272-2.65-5.924-5.922-5.924H68.92c-3.272 0-5.923 2.653-5.923 5.925v76.293H35.83c-2.517 0-4.758 1.59-5.59 3.967-.83 2.376-.07 5.018 1.9 6.587zm36.778 1.29c3.27 0 5.922-2.65 5.922-5.924V21.956h50.317v76.292c0 3.272 2.653 5.924 5.923 5.924h16.15L100 141.812l-47.234-37.64h16.152zm0 0"/><path d="M192.802 130.175c-3.27 0-5.922 2.653-5.922 5.924v41.944H13.12V136.1c0-3.272-2.652-5.925-5.923-5.925-3.272 0-5.924 2.653-5.924 5.924v47.868c0 3.27 2.65 5.922 5.924 5.922h185.605c3.27 0 5.924-2.65 5.924-5.922v-47.87c0-3.27-2.653-5.923-5.924-5.923zm0 0"/></g></svg>