<svg xmlns="http://www.w3.org/2000/svg" viewBox="0 0 200 200"><g fill="#FFF"><path d="M141.363 62.778H58.648c-1.745 0-3.3-1.114-3.86-2.768-.556-1.655 0-3.482 1.39-4.542l41.353-31.554c1.46-1.11 3.483-1.11 4.944 0l41.17 31.414c1.082.735 1.796 1.973 1.796 3.378-.004 2.25-1.826 4.072-4.077 4.072zm-70.66-8.146H129.3L100 32.277 70.703 54.632zm0 0"/><path d="M194.166 172.66h-7.74v-10.245c0-2.25-1.822-4.073-4.073-4.073h-9.594v-81.55h10.832c2.25 0 4.073-1.82 4.073-4.072 0-1.406-.71-2.647-1.796-3.38L102.47 5.71c-1.46-1.115-3.482-1.115-4.94 0L13.95 69.48c-1.39 1.06-1.95 2.888-1.39 4.542.558 1.655 2.112 2.77 3.858 2.77h10.824v81.547H17.65c-2.25 0-4.073 1.825-4.073 4.074v10.246H5.834c-2.248 0-4.073 1.825-4.073 4.073v14.32c0 2.252 1.826 4.073 4.074 4.073h188.33c2.252 0 4.074-1.82 4.074-4.073v-14.32c0-2.248-1.82-4.072-4.072-4.072zM100 14.07l71.527 54.577H28.477L100 14.07zm64.61 62.723v81.548h-5.422V76.794h5.423zm-13.568 0v81.548h-5.42V76.794h5.42zm-13.567 0v81.548H117.64V76.794h19.835zm-27.982 0v81.548h-5.42V76.794h5.42zm-13.566 0v81.548h-5.42V76.794h5.42zm-13.567 0v81.548H62.525V76.794H82.36zm-27.982 0v81.548h-5.42V76.794h5.42zm-13.567 0v81.548h-5.42V76.794h5.42zm-19.086 89.695H178.28v6.173H21.723v-6.172zm168.37 20.495H9.906v-6.176h180.185v6.176zm0 0"/></g></svg>