<svg xmlns="http://www.w3.org/2000/svg" viewBox="0 0 200 200"><path fill="#FFF" d="M183.258 45.84c2.055-5.022 2.8-8.495 3.065-10.48l6.14-6.14c2.604-2.605 4.037-6.068 4.037-9.752 0-3.684-1.434-7.146-4.038-9.75L190.09 7.34c-5.377-5.374-14.126-5.374-19.504.003l-6.144 6.144c-4.247.588-15.437 3.382-33.928 16.52-29.762 21.15-64.32 58.48-102.705 110.952-1.192 1.63-1.02 3.884.41 5.313l1.27 1.27L12.4 162.04c-1.226 1.037-1.738 2.67-1.298 4.217.13.485 3.105 12.048-6.65 23.708-1.405 1.682-1.24 4.17.375 5.648.783.717 1.775 1.075 2.763 1.075.93 0 1.858-.317 2.612-.944.005-.003.01-.008.016-.01 11.658-9.76 23.22-6.782 23.682-6.657 1.546.437 3.204-.064 4.243-1.29l14.493-17.09.893.89c.793.795 1.843 1.2 2.898 1.2.843 0 1.693-.26 2.415-.788 52.793-38.62 90.243-73.346 111.314-103.217 4.038-5.726 7.08-10.734 9.367-15.042l2.626 2.627c1.727 1.727 2.68 4.028 2.68 6.472 0 2.443-.953 4.74-2.68 6.47l-47.275 47.276c-1.6 1.6-1.6 4.19 0 5.79.8.796 1.847 1.196 2.895 1.196 1.047 0 2.095-.4 2.895-1.197L187.94 75.1c3.274-3.276 5.08-7.632 5.08-12.262 0-4.633-1.806-8.99-5.08-12.265l-4.682-4.733zM33.438 180.675c-1.902-.26-4.69-.448-8.036-.104l5.328-5.324c1.6-1.6 1.6-4.193 0-5.79-1.6-1.6-4.19-1.6-5.79 0l-5.328 5.326c.347-3.342.158-6.133-.1-8.037l15.788-13.39 11.53 11.53-13.39 15.79zm23.4-17.364l-20.344-20.34c21.794-29.575 40.65-51.798 56.53-68.48l32.296 32.297c-16.72 15.92-38.95 34.765-68.482 56.524zm106.628-99.248c-6.59 9.345-16.737 21.693-32.267 37.023L98.725 68.61c14.602-14.795 26.438-24.644 35.455-31.154 16.867-12.17 26.995-15.05 30.62-15.725l13.294 13.294c-.62 3.434-3.28 12.954-14.628 29.038zm8.615-46.633l4.298-4.295c2.186-2.186 5.74-2.183 7.922-.003l2.373 2.375c1.058 1.058 1.64 2.466 1.64 3.96 0 1.497-.582 2.904-1.64 3.962l-4.294 4.296-10.3-10.297zm0 0"/></svg>