<svg xmlns="http://www.w3.org/2000/svg" viewBox="0 0 200 200"><path fill="#FFF" d="M187.574 23.83h-15.808V8.023c0-3.215-2.606-5.82-5.822-5.82H12.424c-3.214 0-5.82 2.605-5.82 5.82v162.326c0 3.214 2.606 5.82 5.82 5.82h15.81v15.81c0 3.214 2.607 5.82 5.822 5.82h153.516c3.216 0 5.823-2.606 5.823-5.82V29.65c0-3.213-2.606-5.82-5.82-5.82zM29.94 88.703c-1.092 1.093-1.704 2.574-1.704 4.115v71.71h-9.99V13.843h141.877v9.988h-62.9c-1.544 0-3.025.616-4.116 1.707L29.94 88.702zM91.4 43.706v43.292H48.11L91.4 43.706zm90.354 142.45H39.877V98.64h57.345c3.215 0 5.82-2.606 5.82-5.82V35.514v-.042h78.71v150.684zm0 0"/></svg>